<svg xmlns="http://www.w3.org/2000/svg" viewBox="0 0 1080 1080">
  <rect width="1080" height="1080" fill="#e8e6e1"/>
  <text x="540" y="130" text-anchor="middle" font-family="Georgia, serif" font-size="88" fill="#1f1c1d">Website Launch</text>
  <text x="540" y="190" text-anchor="middle" font-family="Arial, sans-serif" font-size="56" fill="#1f1c1d">New client website</text>

  <rect x="300" y="240" width="660" height="700" rx="42" fill="#1f1f24"/>
  <rect x="320" y="270" width="620" height="640" rx="24" fill="#f9f7f2"/>
  <rect x="380" y="320" width="340" height="90" rx="8" fill="#ece9e3"/>
  <text x="395" y="368" font-family="Georgia, serif" font-size="64" fill="#1f1c1d">Inclusive</text>
  <text x="395" y="432" font-family="Georgia, serif" font-size="64" fill="#1f1c1d">Fashion</text>
  <text x="395" y="496" font-family="Georgia, serif" font-size="64" fill="#1f1c1d">for Everyone</text>

  <rect x="710" y="360" width="190" height="240" fill="#d7c8b3"/>
  <rect x="650" y="450" width="170" height="260" fill="#8c6c4b"/>
  <rect x="360" y="540" width="180" height="48" rx="24" fill="#111"/>
  <text x="450" y="572" text-anchor="middle" font-family="Arial, sans-serif" font-size="26" fill="#fff">shop now</text>

  <rect x="335" y="730" width="590" height="180" fill="#6b3e2c"/>
  <text x="380" y="795" font-family="Georgia, serif" font-size="52" fill="#f8f3eb">Be yourself.</text>

  <rect x="130" y="570" width="260" height="460" rx="34" fill="#26272d"/>
  <rect x="145" y="595" width="230" height="410" rx="16" fill="#f8f6f0"/>
  <rect x="165" y="630" width="190" height="140" fill="#ece7de"/>
  <rect x="245" y="660" width="90" height="130" fill="#8d6b46"/>
  <rect x="165" y="790" width="190" height="160" fill="#6b3e2c"/>

  <circle cx="190" cy="560" r="108" fill="#2f3037"/>
  <text x="190" y="548" text-anchor="middle" font-family="Arial, sans-serif" font-size="56" fill="#f7f7f7">Website</text>
  <text x="190" y="605" text-anchor="middle" font-family="Arial, sans-serif" font-size="56" fill="#f7f7f7">Design</text>
</svg>
